name C:\Users\r0593348\3dpredictsim\Results\MidTarsalJoint\Fal_s1_bCst_PF_Natali2010_ls150_MT_k400_MTP_T10_ig24.mot
datacolumns 128
datarows 4
range 0.56745383 0.60150106
endheader
time	pelvis_tilt	pelvis_list	pelvis_rotation	pelvis_tx	pelvis_ty	pelvis_tz	hip_flexion_l	hip_adduction_l	hip_rotation_l	hip_flexion_r	hip_adduction_r	hip_rotation_r	knee_angle_l	knee_angle_r	ankle_angle_l	ankle_angle_r	subtalar_angle_l	subtalar_angle_r	mtj_angle_l	mtj_angle_r	mtp_angle_l	mtp_angle_r	lumbar_extension	lumbar_bending	lumbar_rotation	arm_flex_l	arm_add_l	arm_rot_l	arm_flex_r	arm_add_r	arm_rot_r	elbow_flex_l	elbow_flex_r	pro_sup_l	pro_sup_r	glut_med1_l/activation	glut_med2_l/activation	glut_med3_l/activation	glut_min1_l/activation	glut_min2_l/activation	glut_min3_l/activation	semimem_l/activation	semiten_l/activation	bifemlh_l/activation	bifemsh_l/activation	sar_l/activation	add_long_l/activation	add_brev_l/activation	add_mag1_l/activation	add_mag2_l/activation	add_mag3_l/activation	tfl_l/activation	pect_l/activation	grac_l/activation	glut_max1_l/activation	glut_max2_l/activation	glut_max3_l/activation	iliacus_l/activation	psoas_l/activation	quad_fem_l/activation	gem_l/activation	peri_l/activation	rect_fem_l/activation	vas_med_l/activation	vas_int_l/activation	vas_lat_l/activation	med_gas_l/activation	lat_gas_l/activation	soleus_l/activation	tib_post_l/activation	flex_dig_l/activation	flex_hal_l/activation	tib_ant_l/activation	per_brev_l/activation	per_long_l/activation	per_tert_l/activation	ext_dig_l/activation	ext_hal_l/activation	ercspn_l/activation	intobl_l/activation	extobl_l/activation	glut_med1_r/activation	glut_med2_r/activation	glut_med3_r/activation	glut_min1_r/activation	glut_min2_r/activation	glut_min3_r/activation	semimem_r/activation	semiten_r/activation	bifemlh_r/activation	bifemsh_r/activation	sar_r/activation	add_long_r/activation	add_brev_r/activation	add_mag1_r/activation	add_mag2_r/activation	add_mag3_r/activation	tfl_r/activation	pect_r/activation	grac_r/activation	glut_max1_r/activation	glut_max2_r/activation	glut_max3_r/activation	iliacus_r/activation	psoas_r/activation	quad_fem_r/activation	gem_r/activation	peri_r/activation	rect_fem_r/activation	vas_med_r/activation	vas_int_r/activation	vas_lat_r/activation	med_gas_r/activation	lat_gas_r/activation	soleus_r/activation	tib_post_r/activation	flex_dig_r/activation	flex_hal_r/activation	tib_ant_r/activation	per_brev_r/activation	per_long_r/activation	per_tert_r/activation	ext_dig_r/activation	ext_hal_r/activation	ercspn_r/activation	intobl_r/activation	extobl_r/activation	
          0.56745383	         -2.93017647	          1.99309015	         -5.41360847	          0.70931728	          0.91895409	          0.00221742	         29.36962172	          3.10008448	         -3.19375574	        -17.03017860	         -0.89723469	          6.33821212	        -11.00996223	         -7.57610515	          5.65841932	         -1.55762017	         -3.36898992	          8.23578436	         -0.02558499	          3.81606043	         -0.77960276	         12.71914392	         -1.99343178	         -0.14389133	          2.02102028	         -5.04563310	        -13.45449416	          6.71790148	          4.79437785	        -13.45363226	         15.77561588	         16.83199309	         34.34816405	         86.51662706	         86.51662706	          0.05945754	          0.05945754	          0.05000017	          0.05945761	          0.05945759	          0.05915488	          0.16930779	          0.07503934	          0.20060379	          0.05956403	          0.05000019	          0.15997022	          0.29851557	          0.10585531	          0.19229019	          0.10411927	          0.05000016	          0.05008354	          0.14166130	          0.05000053	          0.05000053	          0.14939633	          0.05879586	          0.05000033	          0.27428970	          0.28417054	          0.12843654	          0.05000035	          0.10829669	          0.10621048	          0.09707998	          0.06644509	          0.06116501	          0.06090403	          0.05000004	          0.05000078	          0.05000032	          0.49074832	          0.24995597	          0.15985112	          0.14948734	          0.46747844	          0.22108414	          0.05923718	          0.11634838	          0.09997859	          0.25207080	          0.09998199	          0.07456460	          0.27772447	          0.19250439	          0.11084755	          0.05000134	          0.05000026	          0.05000014	          0.05574179	          0.11090135	          0.08601667	          0.06117943	          0.05000111	          0.05000208	          0.05000072	          0.31062379	          0.08006771	          0.05000155	          0.05000169	          0.05000104	          0.05000096	          0.42350530	          0.65911975	          0.05000015	          0.05000040	          0.05733439	          0.25136304	          0.05000086	          0.05000087	          0.05000081	          0.28643370	          0.38766891	          0.33207089	          0.28008782	          0.26210080	          0.34668143	          0.05000005	          0.05945729	          0.12639136	          0.05000033	          0.05000008	          0.05000029	          0.05000002	          0.05000009	          0.05974558	
          0.57880290	         -2.92776938	          2.07481872	         -5.69081310	          0.72641415	          0.91806014	          0.00202286	         28.77026858	          3.46318458	         -2.96272389	        -16.93528594	         -1.19360173	          6.14270686	        -11.41875717	         -9.43805158	          4.96716521	         -2.12179415	         -3.73603007	          9.16821335	         -0.08580425	          3.12338788	         -0.78368788	         14.14134637	         -1.79181060	         -0.33998993	          2.08725962	         -5.94086689	        -13.45042078	          6.47909938	          4.53083939	        -13.46035515	         16.14171202	         16.45915143	         35.49197776	         86.51662706	         86.51662706	          0.05000001	          0.05000005	          0.10973057	          0.05000006	          0.05000007	          0.05000007	          0.14237716	          0.06310335	          0.16869496	          0.05008963	          0.05949365	          0.13452489	          0.29635945	          0.32977051	          0.20825020	          0.10869843	          0.05000038	          0.07073046	          0.13232282	          0.05001489	          0.07556541	          0.13923668	          0.05000015	          0.07065337	          0.55788415	          0.23896926	          0.10800697	          0.05945903	          0.12649288	          0.12771932	          0.11227079	          0.06442882	          0.06577671	          0.05455885	          0.05945744	          0.05000856	          0.05945560	          0.48511467	          0.30759108	          0.19825902	          0.12570936	          0.39312318	          0.18591766	          0.05000000	          0.09784154	          0.08407559	          0.21197545	          0.08407848	          0.06270410	          0.23354861	          0.16188392	          0.09321575	          0.05000287	          0.05000092	          0.05000161	          0.05000014	          0.09326115	          0.18049544	          0.05945857	          0.05946176	          0.05945908	          0.05945901	          0.26121486	          0.06740973	          0.05002494	          0.05000742	          0.05000719	          0.05619654	          0.35614091	          0.61217694	          0.05945739	          0.05945870	          0.05945465	          0.21138028	          0.14203597	          0.14608201	          0.13855592	          0.24087239	          0.32600475	          0.28331869	          0.24329745	          0.22041058	          0.29153774	          0.05000002	          0.05000016	          0.14297778	          0.05000009	          0.05000002	          0.05000014	          0.05950818	          0.07070402	          0.05946016	
          0.59015198	         -2.92098207	          2.16154493	         -5.93814790	          0.74382425	          0.91719788	          0.00185161	         28.03560998	          3.72232830	         -2.70344237	        -16.78333596	         -1.49110710	          5.93300112	        -11.98399099	        -11.38741857	          4.40337609	         -2.83326602	         -4.13155127	         10.05197299	         -0.17195856	          2.33194580	         -0.78944668	         15.55276183	         -1.56776576	         -0.54880915	          2.14149620	         -6.86392857	        -13.45440301	          6.30162452	          4.18537848	        -13.46342589	         16.42568364	         16.13059092	         36.62524064	         86.51662706	         86.51662706	          0.23874832	          0.24093718	          0.30881262	          0.37840939	          0.24386908	          0.23678445	          0.12027118	          0.05985210	          0.14186176	          0.06919181	          0.05003060	          0.11312686	          0.24921938	          0.27731597	          0.17512531	          0.11925611	          0.05000064	          0.05948054	          0.11127561	          0.05000055	          0.06354597	          0.11709159	          0.05341317	          0.05941504	          0.46914485	          0.20095794	          0.20198751	          0.05000127	          0.10637252	          0.10740389	          0.09441264	          0.05418056	          0.05531409	          0.05000019	          0.05000012	          0.05000052	          0.05000063	          0.52868044	          0.28894583	          0.16672322	          0.37225691	          0.47959826	          0.15634523	          0.05845484	          0.12178283	          0.07070220	          0.31391539	          0.07070466	          0.05273022	          0.32657728	          0.13613417	          0.07838855	          0.05000192	          0.05000027	          0.05000022	          0.05000063	          0.07843008	          0.15178519	          0.05000107	          0.05000367	          0.05000176	          0.05000142	          0.28391120	          0.05669069	          0.05000121	          0.05000382	          0.05000172	          0.05000083	          0.29949219	          0.58326374	          0.05000034	          0.05000170	          0.05000060	          0.17775731	          0.11944326	          0.12284573	          0.11651675	          0.20255825	          0.27414911	          0.23825286	          0.20459764	          0.18535134	          0.24516471	          0.05000005	          0.10070671	          0.15738638	          0.05000030	          0.05000019	          0.05000029	          0.05023685	          0.05945756	          0.05000220	
          0.60150106	         -2.91208689	          2.24473486	         -6.15034989	          0.76132381	          0.91639293	          0.00165507	         27.25279802	          3.95499687	         -2.44067145	        -16.53480880	         -1.78238744	          5.73509484	        -12.51758318	        -13.46930329	          3.97046850	         -3.69327470	         -4.52578682	         10.89978419	         -0.14711736	          1.49683476	         -0.76878881	         16.83477940	         -1.34643015	         -0.76107230	          2.18603979	         -7.76659786	        -13.45953956	          6.18566758	          3.79571372	        -13.47261972	         16.65434282	         15.82520227	         37.72923345	         86.51662706	         86.51662706	          0.32993673	          0.32438081	          0.34041131	          0.31821830	          0.20509204	          0.19912284	          0.10344309	          0.07602474	          0.11929684	          0.05818617	          0.05000097	          0.09513247	          0.20957757	          0.23320515	          0.14726978	          0.15451771	          0.05000036	          0.05001966	          0.09357591	          0.20165783	          0.16046761	          0.14684719	          0.05000008	          0.05000009	          0.39452080	          0.16899282	          0.16985876	          0.05000007	          0.11551048	          0.12607413	          0.09738389	          0.05000004	          0.05000008	          0.05000001	          0.05000002	          0.05000012	          0.05000010	          0.59710754	          0.28462087	          0.15915890	          0.54999716	          0.52236572	          0.26989304	          0.07642497	          0.10241157	          0.05945604	          0.27939171	          0.05945813	          0.05000025	          0.27463084	          0.11448019	          0.06591981	          0.05000269	          0.05000029	          0.05000027	          0.05000018	          0.06595493	          0.15437642	          0.10000710	          0.05005214	          0.05001449	          0.05000339	          0.23875345	          0.06367777	          0.05000235	          0.05000446	          0.05000293	          0.05000277	          0.25185378	          0.53194158	          0.05000075	          0.05000158	          0.05000027	          0.14948253	          0.14081525	          0.12925408	          0.11889634	          0.17033851	          0.23054185	          0.20035539	          0.17205356	          0.15586873	          0.20616792	          0.06079090	          0.09130744	          0.16217110	          0.05000081	          0.11216687	          0.05000336	          0.07104668	          0.05000002	          0.05000003	
